<?xml version="1.0" encoding="utf-8"?>
<!-- Generator: Adobe Illustrator 24.0.3, SVG Export Plug-In . SVG Version: 6.00 Build 0)  -->
<svg version="1.1" id="Layer_1" xmlns="http://www.w3.org/2000/svg" xmlns:xlink="http://www.w3.org/1999/xlink" x="0px" y="0px"
	 viewBox="0 0 67 31" style="enable-background:new 0 0 67 31;" xml:space="preserve">
<style type="text/css">
	.st0{fill:#FF00D6;}
</style>
<path class="st0" d="M0,15.5c0,3.8,0,7.6,0,11.3c0.8,0,1.5,0,2.2,0c-0.1-1.1-0.1-2.1,0.1-3.1c0.3-1.3,0.9-2.5,1.7-3.5
	c1.8-2.2,4.5-3.2,7.3-2.8c1.4,0.2,2.8,0.7,3.9,1.6c1.2,1,2.2,2.2,3.4,3.2c2.2,2,5,2.8,8,2.3c2.9-0.5,5.7-2.4,6.7-5.2
	c0.5-1.4,0.3-3-0.5-4.2c-0.8-1.1-2.1-1.8-3.5-1.7c-3.3,0.4-3.6,4.5-2.6,7c1,2.6,3.4,4.8,6.3,4.7c1.5-0.1,3-0.7,4-1.8
	c1-1.1,1.3-2.5,1.7-3.8c0.1-0.5,0.3-1,0.6-1.3c0.1-0.1,0.2-0.2,0.4-0.2c0,0,0.3,0,0.4,0.1c0.5,0.3,0.8,0.9,1.2,1.3
	c0.4,0.5,0.9,1,1.5,1.4c0.5,0.3,1.2,0.1,1.5-0.4c1.1-1.7-0.1-3.8-1.7-4.5c-1.9-0.9-3.9,0-5,1.8c-1,1.7-1,4.1-0.3,5.9
	c1,2.2,3.4,2.8,5.3,1.3c2.4-2,1.4-5.2,0.3-7.7c-0.5,0.5-1,1-1.5,1.6c1,0.7,1.7,1.9,2.4,3c0.7,1.2,1.6,2.3,2.7,3.1
	c1.1,0.8,2.5,1.2,3.8,0.9c1.3-0.3,2.4-1.3,3.2-2.3c3.3-4.2,4.8-9.9,4.3-15.2c-0.1-1.4-0.3-2.7-0.7-4.1c-0.3-1.2-0.7-2.7-1.8-3.4
	c-1-0.7-2.4-0.5-3.2,0.5c-0.8,0.9-1,2.1-1.2,3.2c-0.8,5-1.6,10.6,0.2,15.5c1,2.8,2.8,5.1,5.2,6.8c2.5,1.7,5.5,2.7,8.4,3.5
	c1.4,0.4,2-1.8,0.6-2.2c-4.3-1.2-8.8-2.8-11.2-6.9c-2.2-3.8-2.1-8.5-1.6-12.7c0.1-1.1,0.3-2.2,0.5-3.3c0.1-0.8,0.2-1.9,0.8-2.5
	c0.2-0.1,0.1-0.1,0.2,0c0.3,0.2,0.5,1,0.6,1.3c0.4,1.1,0.6,2.2,0.8,3.3c0.6,4.6-0.3,9.3-2.7,13.3c-0.6,1-1.3,2.1-2.3,2.7
	c-1,0.7-2.1,0.4-3-0.4c-1-0.8-1.6-1.9-2.2-2.9c-0.8-1.2-1.6-2.2-2.7-3.1c-0.4-0.3-1-0.2-1.4,0.2c-0.4,0.4-0.4,0.9-0.2,1.4
	c0.6,1.4,1.7,3.8,0,5c-1.4,1-1.9-1.3-1.9-2.3c0-1.1,0.4-2.9,1.7-3.2c0.4-0.1,0.9,0.1,1.3,0.4c0.2,0.2,0.3,0.4,0.4,0.6
	c0.1,0.2,0,0.3-0.1,0.5c0.5-0.1,1-0.3,1.5-0.4c-0.9-0.5-1.3-1.6-2.1-2.2c-0.9-0.8-2.2-1.1-3.3-0.5c-2,1.1-1.7,3.6-2.8,5.3
	c-1.2,1.9-3.9,1.8-5.4,0.4c-0.9-0.8-1.5-1.9-1.7-3.1c-0.2-0.9-0.2-2.3,0.6-2.9c0.8-0.5,1.8,0.2,2.1,0.9c0.5,1.1-0.1,2.4-0.8,3.3
	c-1.5,1.9-4.2,2.7-6.5,2.3c-1.2-0.2-2.3-0.7-3.3-1.4c-1.2-0.9-2.1-2.1-3.2-3.1c-2.1-1.9-4.8-2.9-7.6-2.8c-3.2,0.2-6,1.7-7.8,4.3
	c-1.6,2.2-2,4.8-1.9,7.5c0.1,1.4,2.2,1.5,2.2,0c0-3.8,0-7.6,0-11.3C2.3,14,0,14,0,15.5z"/>
</svg>
